# xmcd
#
# Track frame offsets:
#	150
#	18296
#	40293
#	53915
#	71224
#	92848
#	108275
#	125956
#	153381
#	163907
#	180390
#	222252
#	239839
#
# Disc length: 3791 seconds
#
# Revision: 1
# Processed by: cddbd v1.4PL0 Copyright (c) Steve Scherf et al.
# Submitted via: audiograbber 1.82.01
#
DISCID=be0ecd0d
DTITLE=Wim Mertens - Antología. Lo Mejor De Wim Mertens
DYEAR=2002
DGENRE=New Age
TTITLE0=Struggle For Pleasure
TTITLE1=Birds For The Mind
TTITLE2=Humility
TTITLE3=Often A Bird
TTITLE4=Rest Meines Ichs
TTITLE5=The Whole
TTITLE6=Circular Breathing
TTITLE7=La Fin De La Visite
TTITLE8=Usura
TTITLE9=Hors-Nature
TTITLE10=Not Me
TTITLE11=Al
TTITLE12=Iris
EXTD=
EXTT0=
EXTT1=
EXTT2=
EXTT3=
EXTT4=
EXTT5=
EXTT6=
EXTT7=
EXTT8=
EXTT9=
EXTT10=
EXTT11=
EXTT12=
PLAYORDER=
